<?xml version="1.0" encoding="iso-8859-1"?>
<!-- Uploaded to: SVG Repo, www.svgrepo.com, Generator: SVG Repo Mixer Tools -->
<svg fill="#000000" height="800px" width="800px" version="1.1" id="Layer_1" xmlns="http://www.w3.org/2000/svg" xmlns:xlink="http://www.w3.org/1999/xlink" 
	 viewBox="0 0 512 512" xml:space="preserve">
<g>
	<g>
		<path d="M456.515,200.087h-3.158c7.072-22.775,0.257-50.507-18.241-65.712c0.467-24.08-14.023-49.634-37.225-57.143
			c-5.681-26.056-28.35-43.163-50.04-43.483c-13.296-21.421-39.024-29.831-60.324-22.137c-17.899-15.095-44.244-15.865-63.055-0.002
			c-21.258-7.676-47.008,0.68-60.323,22.14c-21.564,0.32-44.332,17.319-50.038,43.48c-23.211,7.504-37.691,33.074-37.228,57.144
			c-18.333,15.071-25.381,42.719-18.241,65.712h-3.157c-9.228,0-16.71,7.482-16.71,16.71v77.978
			c0,65.354,41.908,121.094,100.258,141.785v25.312C139.032,489.512,161.52,512,189.161,512h133.677
			c27.641,0,50.129-22.488,50.129-50.129V436.56c58.35-20.691,100.258-76.431,100.258-141.785v-77.978
			C473.225,207.569,465.743,200.087,456.515,200.087z M100.931,157.505c7.103-3.19,10.964-10.954,9.22-18.543
			c-3.1-13.494,6.069-31.689,18.46-31.284c9.422,0.285,17.126-7.45,16.81-16.863c-0.559-16.661,13.904-26.908,23.241-23.783
			c8.692,2.903,18.043-1.92,20.755-10.624c4.504-14.449,19.785-18.59,28.187-11.682c7.522,6.18,18.771,4.443,24.066-3.741
			c7.181-11.095,21.442-11.142,28.659,0.004c5.291,8.172,16.532,9.927,24.063,3.741c8.439-6.932,23.7-2.724,28.193,11.681
			c2.723,8.73,12.091,13.515,20.754,10.622c9.06-3.031,23.809,6.863,23.241,23.783c-0.316,9.389,7.36,17.145,16.805,16.863
			c12.425-0.447,21.542,17.877,18.462,31.283c-1.743,7.59,2.117,15.354,9.22,18.544c11.804,5.303,16.451,27.247,8.333,38.732
			c-1.328,1.878-2.853,3.206-4.36,3.85H96.957C84.62,194.824,85.887,164.263,100.931,157.505z M339.548,461.871
			c0,9.214-7.496,16.71-16.71,16.71H189.161c-9.214,0-16.71-7.496-16.71-16.71v-17.643c5.489,0.609,11.062,0.934,16.71,0.934
			h133.677c5.648,0,11.221-0.324,16.71-0.934V461.871z M439.806,294.775c0,64.496-52.472,116.967-116.967,116.967H189.161
			c-64.496,0-116.967-52.472-116.967-116.967v-61.269h367.612V294.775z"/>
	</g>
</g>
<g>
	<g>
		<path d="M189.161,344.904c-27.641,0-50.129-22.488-50.129-50.129c0-9.228-7.481-16.71-16.71-16.71
			c-9.228,0-16.71,7.482-16.71,16.71c0,46.068,37.48,83.548,83.548,83.548c9.229,0,16.71-7.482,16.71-16.71
			C205.871,352.385,198.389,344.904,189.161,344.904z"/>
	</g>
</g>
<g>
	<g>
		<circle cx="256.003" cy="149.964" r="16.71"/>
	</g>
</g>
<g>
	<g>
		<circle cx="322.841" cy="116.533" r="16.71"/>
	</g>
</g>
<g>
	<g>
		<circle cx="189.164" cy="116.533" r="16.71"/>
	</g>
</g>
</svg>